<?xml version="1.0" encoding="utf-8"?>
<!-- Generator: Adobe Illustrator 16.0.4, SVG Export Plug-In . SVG Version: 6.00 Build 0)  -->
<!DOCTYPE svg PUBLIC "-//W3C//DTD SVG 1.1//EN" "http://www.w3.org/Graphics/SVG/1.1/DTD/svg11.dtd">
<svg version="1.1" id="Layer_1" xmlns="http://www.w3.org/2000/svg" xmlns:xlink="http://www.w3.org/1999/xlink" x="0px" y="0px"
	 width="705.033px" height="448.955px" viewBox="0 0 705.033 448.955" enable-background="new 0 0 705.033 448.955"
	 xml:space="preserve">
<g>
	<path fill="#92D400" d="M339.739,148.339c-14.36,15.287-29.403,35.019-43.967,58.445c-14.936,24.073-27.485,48.976-37.089,72.658
		c-4.094,10.098,1.615,21.515,12.204,24.043c23.978,5.714,51.513,8.968,80.894,8.968c29.418,0,57.917-3.266,82.319-9.005
		c10.63-2.491,16.353-13.944,12.244-24.03c-9.603-23.67-22.123-48.561-37.073-72.634c-14.55-23.426-29.604-43.158-43.951-58.445
		C358.394,140.976,346.662,140.976,339.739,148.339"/>
	<path fill="#92D400" d="M139.514,448.955c-69.219,0-129.787-59.175-138.511-135.918c-4.437-39.075,5.94-77.32,29.224-107.694
		c22.873-29.84,57.907-51.852,102.051-64.306C146.952,75.365,223.472,15.858,306.299,2.583
		c79.383-12.734,174.148,20.125,228.673,131.891c83.914-2.308,125.648,39.53,143.538,66.081
		c32.88,48.792,35.421,118.08,6.334,172.413c-25.603,47.817-70.416,75.187-123.038,75.188c-0.268,0-0.531,0-0.799-0.002
		c-93.615-0.492-214.167-0.008-215.374,0l-28.209,0.117V256.775h56.185v135.102c41.518-0.115,121.338-0.259,187.693,0.092
		c43.236,0.196,64.857-28.421,74.006-45.519c19.232-35.915,17.837-82.999-3.391-114.498
		c-21.439-31.822-60.066-45.715-111.667-40.196l-21.172,2.267l-7.904-19.772C452.454,77.402,381.451,47.429,315.191,58.06
		c-65.369,10.478-126.776,58.698-129.828,107.517l-1.337,21.387l-20.98,4.363C90.054,206.51,50.347,249.638,56.831,306.692
		c4.736,41.696,37.585,86.08,82.611,86.08c0.487,0,0.97-0.005,1.457-0.017l119.486-2.535l1.193,56.172l-119.485,2.535
		C141.235,448.946,140.371,448.955,139.514,448.955"/>
</g>
</svg>
